<?xml version="1.0" encoding="UTF-8" standalone="no"?><!DOCTYPE svg PUBLIC "-//W3C//DTD SVG 1.1//EN" "http://www.w3.org/Graphics/SVG/1.1/DTD/svg11.dtd"><svg width="100%" height="100%" viewBox="0 0 18 18" version="1.1" xmlns="http://www.w3.org/2000/svg" xmlns:xlink="http://www.w3.org/1999/xlink" xml:space="preserve" xmlns:serif="http://www.serif.com/" style="fill-rule:evenodd;clip-rule:evenodd;stroke-linejoin:round;stroke-miterlimit:2;"><g><rect x="2.768" y="1.063" width="12.473" height="1.743" style="fill:#404040;"/><rect x="3.768" y="0" width="10.473" height="1.743" style="fill:#404040;"/><rect x="1.635" y="2.125" width="14.74" height="1.743" style="fill:#404040;"/><rect x="2.768" y="10.665" width="12.293" height="2.137" style="fill:#404040;"/><rect x="1.635" y="8.665" width="14.559" height="2.012" style="fill:#404040;"/><rect x="5.036" y="9.617" width="7.937" height="7.37" style="fill:#404040;"/><rect x="6.036" y="11.617" width="5.937" height="6.37" style="fill:#404040;"/><rect x="3.903" y="10.68" width="10.203" height="4.245" style="fill:#404040;"/></g><path d="M17.508,3.187l-17.007,-0l-0,5.506l17.007,0l0,0.003l0,-5.509Zm-11.597,0.943l-2.617,0l-0,3.56l2.617,0l-0,-3.56Zm8.805,0l-2.618,0l0,3.56l2.618,0l-0,-3.56Z" style="fill:#404040;"/></svg>